<svg xmlns="http://www.w3.org/2000/svg" viewBox="0 0 94.23 94.23" vector-effect="non-scaling-stroke">
    <defs>
        <style>
            .cls-1 {
                fill: none;
                stroke: #000;
                stroke-miterlimit: 10;
            }
        </style>
    </defs>
    <g id="Layer_2" data-name="Layer 2">
        <g id="Layer_1-2" data-name="Layer 1">
            <circle vector-effect="non-scaling-stroke" class="cls-1" cx="47.12" cy="47.12" r="46.62" />
            <path vector-effect="non-scaling-stroke" class="cls-1" d="M3.2,31.47l77.14-17" />
            <path vector-effect="non-scaling-stroke" class="cls-1" d="M76.79,11.17,5.05,27" />
            <path vector-effect="non-scaling-stroke" class="cls-1" d="M1,40.65,86.26,21.82" />
            <path vector-effect="non-scaling-stroke" class="cls-1" d="M.51,47.65,89.61,28" />
            <path vector-effect="non-scaling-stroke" class="cls-1" d="M70.21,6.63,9.13,20.11" />
            <path vector-effect="non-scaling-stroke" class="cls-1" d="M73.56,85.5,39.28,93.06" />
            <path vector-effect="non-scaling-stroke" class="cls-1" d="M58.8,2,17.53,11.09" />
            <path vector-effect="non-scaling-stroke" class="cls-1" d="M.74,51.94,91.2,32" />
            <path vector-effect="non-scaling-stroke" class="cls-1" d="M17.4,83,89.19,67.19" />
            <path vector-effect="non-scaling-stroke" class="cls-1" d="M91.56,61.17,12.72,78.58" />
            <path vector-effect="non-scaling-stroke" class="cls-1" d="M26.21,88.78,83.59,76.11" />
            <path vector-effect="non-scaling-stroke" class="cls-1" d="M1.39,56.19l91-20.09" />
            <path vector-effect="non-scaling-stroke" class="cls-1" d="M92.68,57,9.92,75.22" />
            <path vector-effect="non-scaling-stroke" class="cls-1" d="M4.75,66.58l89-19.64" />
            <path vector-effect="non-scaling-stroke" class="cls-1" d="M93.25,53.75,8.05,72.55" />
        </g>
    </g>
</svg>